<svg width="157" height="20" viewBox="0 0 157 20" fill="none" xmlns="http://www.w3.org/2000/svg">
<g clip-path="url(#clip0_1798_52728)">
<path fill-rule="evenodd" clip-rule="evenodd" d="M10.8112 10.9065C10.1112 11.4065 9.31118 11.7065 8.01118 11.6065C5.71118 11.5065 4.41118 9.80655 4.41118 7.80655C4.41118 5.80655 5.81118 4.00655 8.01118 4.00655C9.31118 4.00655 10.0112 4.20655 10.7112 4.70655L13.0112 1.70655C11.4928 0.546751 9.62085 -0.0536966 7.71118 0.00654589C6.67986 -0.0368604 5.65086 0.135978 4.69032 0.513955C3.72978 0.891931 2.85894 1.46668 2.13376 2.20128C1.40859 2.93587 0.845117 3.81405 0.479566 4.77939C0.114015 5.74473 -0.045533 6.77587 0.0111765 7.80655C0.0111765 12.2065 3.21118 15.4065 7.71118 15.4065C9.71118 15.4065 11.6112 15.0065 12.9112 13.9065L10.8112 10.9065ZM69.2112 7.70655C69.2112 5.50655 67.3112 3.70655 63.8112 3.70655C62.0112 3.70655 60.7112 4.00655 59.9112 4.30655L60.6112 7.20655C64.5112 6.00655 65.8112 7.30655 65.6112 8.90655C65.6112 8.90655 64.1112 8.10655 62.4112 8.10655C60.0112 8.10655 58.6112 9.80655 58.6112 11.7065C58.6112 14.1065 60.1112 15.3065 62.4112 15.3065C63.0238 15.3183 63.631 15.1892 64.1858 14.9291C64.7407 14.669 65.2283 14.285 65.6112 13.8065V15.0065H69.2112V7.80655V7.70655ZM63.6112 12.7065C62.7112 12.7065 62.3112 12.2065 62.3112 11.4065C62.3112 10.7065 62.9112 10.2065 63.6112 10.2065C64.5112 10.2065 65.0112 10.3065 65.5112 10.5065H65.6112C65.6112 11.5065 65.0112 12.7065 63.6112 12.7065ZM13.3112 9.60655C13.3112 6.20655 15.9112 3.80655 19.3112 3.80655C22.7112 3.80655 25.3112 6.20655 25.3112 9.60655C25.3112 13.0065 22.7112 15.4065 19.3112 15.4065C15.9112 15.4065 13.3112 13.0065 13.3112 9.60655ZM17.1112 9.60655C17.1112 11.1065 18.0112 12.1065 19.3112 12.1065C20.6112 12.1065 21.5112 11.0065 21.5112 9.60655C21.5112 8.20655 20.6112 7.20655 19.3112 7.20655C18.0112 7.20655 17.1112 8.20655 17.1112 9.60655ZM33.3112 3.80655C32.0112 3.80655 30.8112 4.50655 30.0112 5.50655V4.10655H26.5112V15.1065H30.0112V8.70655C30.0112 8.2822 30.1797 7.87523 30.4798 7.57517C30.7799 7.27512 31.1868 7.10655 31.6112 7.10655C32.0355 7.10655 32.4425 7.27512 32.7425 7.57517C33.0426 7.87523 33.2112 8.2822 33.2112 8.70655V15.1065H36.8112V7.30655C36.8112 5.30655 35.5112 3.80655 33.3112 3.80655ZM53.3112 10.4065C53.3112 11.4065 54.0112 12.1065 55.3112 12.1065C55.8112 12.1065 56.3112 11.9065 56.8112 11.7065L57.8112 14.5065C57.1112 14.9065 55.7112 15.5065 54.1112 15.5065C51.4112 15.5065 49.8112 14.1065 49.8112 12.2065V1.20655H53.3112V4.20655H56.7112L56.5112 7.20655H53.3112V10.4065ZM58.3112 14.1065V14.2065V14.1065ZM39.3112 11.8065L38.0112 13.9065C39.5112 14.9065 41.3112 15.5065 43.3112 15.5065C46.3112 15.5065 48.0112 14.0065 48.0112 11.6065C48.0112 9.30655 46.4112 8.60655 43.7112 7.80655C42.7112 7.50655 42.4112 7.20655 42.4112 6.80655C42.4449 6.66033 42.519 6.52654 42.6251 6.42044C42.7312 6.31435 42.865 6.24023 43.0112 6.20655C44.0112 6.00655 45.4112 6.50655 46.6112 7.20655L47.8112 5.10655C46.5112 4.30655 44.8112 3.70655 43.1112 3.70655C40.3112 3.70655 38.4112 5.20655 38.4112 7.70655C38.4112 9.90655 40.1112 10.7065 42.8112 11.4065C43.8112 11.7065 44.0112 12.1065 44.0112 12.3065C44.0112 12.5065 43.8112 12.8065 43.4112 12.9065C41.93 12.9943 40.4592 12.6091 39.2112 11.8065H39.3112Z" fill="#0078D2"/>
<path style="mix-blend-mode:overlay" fill-rule="evenodd" clip-rule="evenodd" d="M10.8112 10.9065C10.1112 11.4065 9.31118 11.7065 8.01118 11.6065C5.71118 11.5065 4.41118 9.80655 4.41118 7.80655C4.41118 5.80655 5.81118 4.00655 8.01118 4.00655C9.31118 4.00655 10.0112 4.20655 10.7112 4.70655L13.0112 1.70655C11.4928 0.546751 9.62085 -0.0536966 7.71118 0.00654589C6.67986 -0.0368604 5.65086 0.135978 4.69032 0.513955C3.72978 0.891931 2.85894 1.46668 2.13376 2.20128C1.40859 2.93587 0.845117 3.81405 0.479566 4.77939C0.114015 5.74473 -0.045533 6.77587 0.0111765 7.80655C0.0111765 12.2065 3.21118 15.4065 7.71118 15.4065C9.71118 15.4065 11.6112 15.0065 12.9112 13.9065L10.8112 10.9065ZM69.2112 7.70655C69.2112 5.50655 67.3112 3.70655 63.8112 3.70655C62.0112 3.70655 60.7112 4.00655 59.9112 4.30655L60.6112 7.20655C64.5112 6.00655 65.8112 7.30655 65.6112 8.90655C65.6112 8.90655 64.1112 8.10655 62.4112 8.10655C60.0112 8.10655 58.6112 9.80655 58.6112 11.7065C58.6112 14.1065 60.1112 15.3065 62.4112 15.3065C63.0238 15.3183 63.631 15.1892 64.1858 14.9291C64.7407 14.669 65.2283 14.285 65.6112 13.8065V15.0065H69.2112V7.80655V7.70655ZM63.6112 12.7065C62.7112 12.7065 62.3112 12.2065 62.3112 11.4065C62.3112 10.7065 62.9112 10.2065 63.6112 10.2065C64.5112 10.2065 65.0112 10.3065 65.5112 10.5065H65.6112C65.6112 11.5065 65.0112 12.7065 63.6112 12.7065ZM13.3112 9.60655C13.3112 6.20655 15.9112 3.80655 19.3112 3.80655C22.7112 3.80655 25.3112 6.20655 25.3112 9.60655C25.3112 13.0065 22.7112 15.4065 19.3112 15.4065C15.9112 15.4065 13.3112 13.0065 13.3112 9.60655ZM17.1112 9.60655C17.1112 11.1065 18.0112 12.1065 19.3112 12.1065C20.6112 12.1065 21.5112 11.0065 21.5112 9.60655C21.5112 8.20655 20.6112 7.20655 19.3112 7.20655C18.0112 7.20655 17.1112 8.20655 17.1112 9.60655ZM33.3112 3.80655C32.0112 3.80655 30.8112 4.50655 30.0112 5.50655V4.10655H26.5112V15.1065H30.0112V8.70655C30.0112 8.2822 30.1797 7.87523 30.4798 7.57517C30.7799 7.27512 31.1868 7.10655 31.6112 7.10655C32.0355 7.10655 32.4425 7.27512 32.7425 7.57517C33.0426 7.87523 33.2112 8.2822 33.2112 8.70655V15.1065H36.8112V7.30655C36.8112 5.30655 35.5112 3.80655 33.3112 3.80655ZM53.3112 10.4065C53.3112 11.4065 54.0112 12.1065 55.3112 12.1065C55.8112 12.1065 56.3112 11.9065 56.8112 11.7065L57.8112 14.5065C57.1112 14.9065 55.7112 15.5065 54.1112 15.5065C51.4112 15.5065 49.8112 14.1065 49.8112 12.2065V1.20655H53.3112V4.20655H56.7112L56.5112 7.20655H53.3112V10.4065ZM39.3112 11.8065L38.0112 13.9065C39.5112 14.9065 41.3112 15.5065 43.3112 15.5065C46.3112 15.5065 48.0112 14.0065 48.0112 11.6065C48.0112 9.30655 46.4112 8.60655 43.7112 7.80655C42.7112 7.50655 42.4112 7.20655 42.4112 6.80655C42.4449 6.66033 42.519 6.52654 42.6251 6.42044C42.7312 6.31435 42.865 6.24023 43.0112 6.20655C44.0112 6.00655 45.4112 6.50655 46.6112 7.20655L47.8112 5.10655C46.5112 4.30655 44.8112 3.70655 43.1112 3.70655C40.3112 3.70655 38.4112 5.20655 38.4112 7.70655C38.4112 9.90655 40.1112 10.7065 42.8112 11.4065C43.8112 11.7065 44.0112 12.1065 44.0112 12.3065C44.0112 12.5065 43.8112 12.8065 43.4112 12.9065C41.93 12.9943 40.4592 12.6091 39.2112 11.8065H39.3112Z" fill="url(#paint0_linear_1798_52728)"/>
<path d="M76.2112 15.124H78.4532L80.7142 7.543C81.1892 6.023 81.6072 4.465 82.0252 2.888H82.1012C82.5382 4.446 82.9562 6.023 83.4312 7.543L85.6732 15.124H88.0102L83.3932 1.14H80.8282L76.2112 15.124ZM78.8142 11.153H85.3502V9.424H78.8142V11.153Z" fill="#5C6F7A"/>
<path d="M93.2745 15.39C94.4525 15.39 95.5355 14.763 96.3335 13.965H96.3905L96.5615 15.124H98.3665V0H96.1625V3.857L96.2575 5.586C95.4215 4.864 94.6425 4.408 93.4455 4.408C91.1275 4.408 88.9805 6.517 88.9805 9.918C88.9805 13.376 90.6525 15.39 93.2745 15.39ZM93.8065 13.566C92.1725 13.566 91.2415 12.255 91.2415 9.88C91.2415 7.638 92.4195 6.232 93.8825 6.232C94.6615 6.232 95.4025 6.498 96.1625 7.201V12.293C95.4215 13.167 94.6615 13.566 93.8065 13.566Z" fill="#5C6F7A"/>
<path d="M104.102 15.39C105.356 15.39 106.477 14.763 107.427 13.946H107.503L107.674 15.124H109.479V8.854C109.479 6.061 108.282 4.408 105.679 4.408C104.007 4.408 102.525 5.111 101.461 5.776L102.278 7.277C103.152 6.707 104.197 6.194 105.299 6.194C106.819 6.194 107.256 7.258 107.275 8.474C102.943 8.949 101.043 10.108 101.043 12.35C101.043 14.193 102.316 15.39 104.102 15.39ZM104.786 13.642C103.855 13.642 103.152 13.224 103.152 12.198C103.152 11.02 104.178 10.241 107.275 9.88V12.426C106.42 13.224 105.698 13.642 104.786 13.642Z" fill="#5C6F7A"/>
<path d="M112.561 19.361H114.765V15.979L114.689 14.212C115.563 14.972 116.513 15.39 117.444 15.39C119.8 15.39 121.947 13.319 121.947 9.747C121.947 6.517 120.446 4.408 117.805 4.408C116.627 4.408 115.506 5.054 114.594 5.833H114.537L114.347 4.674H112.561V19.361ZM117.026 13.566C116.38 13.566 115.582 13.319 114.765 12.616V7.505C115.639 6.669 116.418 6.232 117.216 6.232C118.964 6.232 119.686 7.581 119.686 9.766C119.686 12.217 118.527 13.566 117.026 13.566Z" fill="#5C6F7A"/>
<path d="M127.543 15.39C128.322 15.39 129.025 15.181 129.614 14.991L129.215 13.376C128.892 13.509 128.455 13.642 128.094 13.642C127.011 13.642 126.555 12.977 126.555 11.742V6.422H129.291V4.674H126.555V1.786H124.731L124.484 4.674L122.85 4.788V6.422H124.37V11.723C124.37 13.908 125.206 15.39 127.543 15.39Z" fill="#5C6F7A"/>
<path d="M135.541 15.39C136.909 15.39 138.106 14.934 139.075 14.288L138.315 12.882C137.536 13.376 136.757 13.661 135.826 13.661C134.021 13.661 132.767 12.483 132.596 10.488H139.379C139.436 10.222 139.474 9.804 139.474 9.367C139.474 6.403 137.973 4.408 135.218 4.408C132.786 4.408 130.449 6.517 130.449 9.918C130.449 13.357 132.691 15.39 135.541 15.39ZM132.558 8.968C132.786 7.144 133.945 6.137 135.256 6.137C136.776 6.137 137.574 7.163 137.574 8.968H132.558Z" fill="#5C6F7A"/>
<path d="M141.933 15.124H144.137V8.626C144.783 6.973 145.809 6.365 146.645 6.365C147.082 6.365 147.348 6.422 147.709 6.536L148.089 4.636C147.766 4.484 147.443 4.408 146.93 4.408C145.809 4.408 144.707 5.206 143.966 6.555H143.909L143.719 4.674H141.933V15.124Z" fill="#5C6F7A"/>
<path d="M152.372 15.39C154.937 15.39 156.324 13.965 156.324 12.198C156.324 10.241 154.728 9.576 153.265 9.025C152.106 8.607 151.099 8.265 151.099 7.372C151.099 6.65 151.631 6.08 152.79 6.08C153.645 6.08 154.386 6.479 155.108 6.992L156.134 5.643C155.298 4.978 154.139 4.408 152.752 4.408C150.415 4.408 149.009 5.719 149.009 7.467C149.009 9.253 150.548 9.994 151.954 10.526C153.075 10.944 154.253 11.381 154.253 12.312C154.253 13.11 153.664 13.718 152.429 13.718C151.289 13.718 150.396 13.243 149.465 12.521L148.439 13.946C149.446 14.782 150.928 15.39 152.372 15.39Z" fill="#5C6F7A"/>
</g>
<defs>
<linearGradient id="paint0_linear_1798_52728" x1="51.5112" y1="-23.7935" x2="14.9112" y2="38.4065" gradientUnits="userSpaceOnUse">
<stop stop-color="white" stop-opacity="0.6"/>
<stop offset="1" stop-color="white" stop-opacity="0"/>
</linearGradient>
<clipPath id="clip0_1798_52728">
<rect width="156.324" height="19.361" fill="white"/>
</clipPath>
</defs>
</svg>

