<svg width="172" height="20" viewBox="0 0 172 20" fill="none" xmlns="http://www.w3.org/2000/svg">
<g clip-path="url(#clip0_1798_52713)">
<path fill-rule="evenodd" clip-rule="evenodd" d="M10.8112 10.9065C10.1112 11.4065 9.31118 11.7065 8.01118 11.6065C5.71118 11.5065 4.41118 9.80655 4.41118 7.80655C4.41118 5.80655 5.81118 4.00655 8.01118 4.00655C9.31118 4.00655 10.0112 4.20655 10.7112 4.70655L13.0112 1.70655C11.4928 0.546751 9.62085 -0.0536966 7.71118 0.00654589C6.67986 -0.0368604 5.65086 0.135978 4.69032 0.513955C3.72978 0.891931 2.85894 1.46668 2.13376 2.20128C1.40859 2.93587 0.845117 3.81405 0.479566 4.77939C0.114015 5.74473 -0.045533 6.77587 0.0111765 7.80655C0.0111765 12.2065 3.21118 15.4065 7.71118 15.4065C9.71118 15.4065 11.6112 15.0065 12.9112 13.9065L10.8112 10.9065ZM69.2112 7.70655C69.2112 5.50655 67.3112 3.70655 63.8112 3.70655C62.0112 3.70655 60.7112 4.00655 59.9112 4.30655L60.6112 7.20655C64.5112 6.00655 65.8112 7.30655 65.6112 8.90655C65.6112 8.90655 64.1112 8.10655 62.4112 8.10655C60.0112 8.10655 58.6112 9.80655 58.6112 11.7065C58.6112 14.1065 60.1112 15.3065 62.4112 15.3065C63.0238 15.3183 63.631 15.1892 64.1858 14.9291C64.7407 14.669 65.2283 14.285 65.6112 13.8065V15.0065H69.2112V7.80655V7.70655ZM63.6112 12.7065C62.7112 12.7065 62.3112 12.2065 62.3112 11.4065C62.3112 10.7065 62.9112 10.2065 63.6112 10.2065C64.5112 10.2065 65.0112 10.3065 65.5112 10.5065H65.6112C65.6112 11.5065 65.0112 12.7065 63.6112 12.7065ZM13.3112 9.60655C13.3112 6.20655 15.9112 3.80655 19.3112 3.80655C22.7112 3.80655 25.3112 6.20655 25.3112 9.60655C25.3112 13.0065 22.7112 15.4065 19.3112 15.4065C15.9112 15.4065 13.3112 13.0065 13.3112 9.60655ZM17.1112 9.60655C17.1112 11.1065 18.0112 12.1065 19.3112 12.1065C20.6112 12.1065 21.5112 11.0065 21.5112 9.60655C21.5112 8.20655 20.6112 7.20655 19.3112 7.20655C18.0112 7.20655 17.1112 8.20655 17.1112 9.60655ZM33.3112 3.80655C32.0112 3.80655 30.8112 4.50655 30.0112 5.50655V4.10655H26.5112V15.1065H30.0112V8.70655C30.0112 8.2822 30.1797 7.87523 30.4798 7.57517C30.7799 7.27512 31.1868 7.10655 31.6112 7.10655C32.0355 7.10655 32.4425 7.27512 32.7425 7.57517C33.0426 7.87523 33.2112 8.2822 33.2112 8.70655V15.1065H36.8112V7.30655C36.8112 5.30655 35.5112 3.80655 33.3112 3.80655ZM53.3112 10.4065C53.3112 11.4065 54.0112 12.1065 55.3112 12.1065C55.8112 12.1065 56.3112 11.9065 56.8112 11.7065L57.8112 14.5065C57.1112 14.9065 55.7112 15.5065 54.1112 15.5065C51.4112 15.5065 49.8112 14.1065 49.8112 12.2065V1.20655H53.3112V4.20655H56.7112L56.5112 7.20655H53.3112V10.4065ZM58.3112 14.1065V14.2065V14.1065ZM39.3112 11.8065L38.0112 13.9065C39.5112 14.9065 41.3112 15.5065 43.3112 15.5065C46.3112 15.5065 48.0112 14.0065 48.0112 11.6065C48.0112 9.30655 46.4112 8.60655 43.7112 7.80655C42.7112 7.50655 42.4112 7.20655 42.4112 6.80655C42.4449 6.66033 42.519 6.52654 42.6251 6.42044C42.7312 6.31435 42.865 6.24023 43.0112 6.20655C44.0112 6.00655 45.4112 6.50655 46.6112 7.20655L47.8112 5.10655C46.5112 4.30655 44.8112 3.70655 43.1112 3.70655C40.3112 3.70655 38.4112 5.20655 38.4112 7.70655C38.4112 9.90655 40.1112 10.7065 42.8112 11.4065C43.8112 11.7065 44.0112 12.1065 44.0112 12.3065C44.0112 12.5065 43.8112 12.8065 43.4112 12.9065C41.93 12.9943 40.4592 12.6091 39.2112 11.8065H39.3112Z" fill="#0078D2"/>
<path style="mix-blend-mode:overlay" fill-rule="evenodd" clip-rule="evenodd" d="M10.8112 10.9065C10.1112 11.4065 9.31118 11.7065 8.01118 11.6065C5.71118 11.5065 4.41118 9.80655 4.41118 7.80655C4.41118 5.80655 5.81118 4.00655 8.01118 4.00655C9.31118 4.00655 10.0112 4.20655 10.7112 4.70655L13.0112 1.70655C11.4928 0.546751 9.62085 -0.0536966 7.71118 0.00654589C6.67986 -0.0368604 5.65086 0.135978 4.69032 0.513955C3.72978 0.891931 2.85894 1.46668 2.13376 2.20128C1.40859 2.93587 0.845117 3.81405 0.479566 4.77939C0.114015 5.74473 -0.045533 6.77587 0.0111765 7.80655C0.0111765 12.2065 3.21118 15.4065 7.71118 15.4065C9.71118 15.4065 11.6112 15.0065 12.9112 13.9065L10.8112 10.9065ZM69.2112 7.70655C69.2112 5.50655 67.3112 3.70655 63.8112 3.70655C62.0112 3.70655 60.7112 4.00655 59.9112 4.30655L60.6112 7.20655C64.5112 6.00655 65.8112 7.30655 65.6112 8.90655C65.6112 8.90655 64.1112 8.10655 62.4112 8.10655C60.0112 8.10655 58.6112 9.80655 58.6112 11.7065C58.6112 14.1065 60.1112 15.3065 62.4112 15.3065C63.0238 15.3183 63.631 15.1892 64.1858 14.9291C64.7407 14.669 65.2283 14.285 65.6112 13.8065V15.0065H69.2112V7.80655V7.70655ZM63.6112 12.7065C62.7112 12.7065 62.3112 12.2065 62.3112 11.4065C62.3112 10.7065 62.9112 10.2065 63.6112 10.2065C64.5112 10.2065 65.0112 10.3065 65.5112 10.5065H65.6112C65.6112 11.5065 65.0112 12.7065 63.6112 12.7065ZM13.3112 9.60655C13.3112 6.20655 15.9112 3.80655 19.3112 3.80655C22.7112 3.80655 25.3112 6.20655 25.3112 9.60655C25.3112 13.0065 22.7112 15.4065 19.3112 15.4065C15.9112 15.4065 13.3112 13.0065 13.3112 9.60655ZM17.1112 9.60655C17.1112 11.1065 18.0112 12.1065 19.3112 12.1065C20.6112 12.1065 21.5112 11.0065 21.5112 9.60655C21.5112 8.20655 20.6112 7.20655 19.3112 7.20655C18.0112 7.20655 17.1112 8.20655 17.1112 9.60655ZM33.3112 3.80655C32.0112 3.80655 30.8112 4.50655 30.0112 5.50655V4.10655H26.5112V15.1065H30.0112V8.70655C30.0112 8.2822 30.1797 7.87523 30.4798 7.57517C30.7799 7.27512 31.1868 7.10655 31.6112 7.10655C32.0355 7.10655 32.4425 7.27512 32.7425 7.57517C33.0426 7.87523 33.2112 8.2822 33.2112 8.70655V15.1065H36.8112V7.30655C36.8112 5.30655 35.5112 3.80655 33.3112 3.80655ZM53.3112 10.4065C53.3112 11.4065 54.0112 12.1065 55.3112 12.1065C55.8112 12.1065 56.3112 11.9065 56.8112 11.7065L57.8112 14.5065C57.1112 14.9065 55.7112 15.5065 54.1112 15.5065C51.4112 15.5065 49.8112 14.1065 49.8112 12.2065V1.20655H53.3112V4.20655H56.7112L56.5112 7.20655H53.3112V10.4065ZM58.3112 14.1065V14.2065V14.1065ZM39.3112 11.8065L38.0112 13.9065C39.5112 14.9065 41.3112 15.5065 43.3112 15.5065C46.3112 15.5065 48.0112 14.0065 48.0112 11.6065C48.0112 9.30655 46.4112 8.60655 43.7112 7.80655C42.7112 7.50655 42.4112 7.20655 42.4112 6.80655C42.4449 6.66033 42.519 6.52654 42.6251 6.42044C42.7312 6.31435 42.865 6.24023 43.0112 6.20655C44.0112 6.00655 45.4112 6.50655 46.6112 7.20655L47.8112 5.10655C46.5112 4.30655 44.8112 3.70655 43.1112 3.70655C40.3112 3.70655 38.4112 5.20655 38.4112 7.70655C38.4112 9.90655 40.1112 10.7065 42.8112 11.4065C43.8112 11.7065 44.0112 12.1065 44.0112 12.3065C44.0112 12.5065 43.8112 12.8065 43.4112 12.9065C41.93 12.9943 40.4592 12.6091 39.2112 11.8065H39.3112Z" fill="url(#paint0_linear_1798_52713)"/>
<path d="M80.7242 7.53105C81.1793 6.01346 81.6155 4.4769 82.0137 2.88342H82.1085C82.5257 4.45793 82.9428 6.01346 83.4169 7.53105L83.9668 9.40907H80.1554L80.7242 7.53105ZM76.2112 15.119H78.4487L79.6434 11.1353H84.4978L85.6734 15.119H88.0058L83.379 1.13819H80.838L76.2112 15.119Z" fill="#5C6F7A"/>
<path d="M89.6569 15.119H91.8375V7.72075C92.7477 6.79122 93.4114 6.29801 94.3785 6.29801C95.6111 6.29801 96.142 7.01886 96.142 8.821V15.119H98.3227V8.55543C98.3227 5.89964 97.3366 4.41999 95.118 4.41999C93.6959 4.41999 92.634 5.19775 91.6669 6.12728H91.61L91.4393 4.68557H89.6569V15.119Z" fill="#5C6F7A"/>
<path d="M103.955 15.3656C105.206 15.3656 106.325 14.7396 107.273 13.9239H107.349L107.52 15.119H109.302V8.83997C109.302 6.07037 108.108 4.41999 105.51 4.41999C103.841 4.41999 102.381 5.1029 101.3 5.78582L102.116 7.26547C103.007 6.69637 104.031 6.20316 105.131 6.20316C106.667 6.20316 107.103 7.26547 107.122 8.47955C102.779 8.95379 100.883 10.111 100.883 12.3494C100.883 14.1895 102.154 15.3656 103.955 15.3656ZM104.619 13.6394C103.689 13.6394 102.988 13.222 102.988 12.1976C102.988 11.0215 104.031 10.2248 107.122 9.86435V12.4253C106.268 13.2031 105.529 13.6394 104.619 13.6394Z" fill="#5C6F7A"/>
<path d="M114.559 15.3656C115.109 15.3656 115.469 15.2897 115.734 15.1949L115.45 13.5445C115.26 13.5824 115.184 13.5824 115.09 13.5824C114.824 13.5824 114.578 13.3738 114.578 12.7857V0H112.397V12.6719C112.397 14.3602 112.985 15.3656 114.559 15.3656Z" fill="#5C6F7A"/>
<path d="M118.519 19.4821C120.719 19.4821 121.818 17.9835 122.634 15.745L126.464 4.68557H124.34L122.672 10.054C122.406 11.0025 122.122 12.0459 121.856 12.9944H121.762C121.439 12.0269 121.117 10.9836 120.813 10.054L118.879 4.68557H116.642L120.776 15.0431L120.567 15.764C120.188 16.8832 119.524 17.7179 118.386 17.7179C118.121 17.7179 117.817 17.623 117.628 17.5661L117.211 19.2734C117.571 19.4062 117.988 19.4821 118.519 19.4821Z" fill="#5C6F7A"/>
<path d="M131.867 15.3656C132.626 15.3656 133.328 15.1759 133.915 14.9862L133.517 13.3738C133.214 13.5066 132.759 13.6204 132.398 13.6204C131.318 13.6204 130.881 12.9754 130.881 11.7234V6.4308H133.593V4.68557H130.881V1.80214H129.061L128.815 4.68557L127.184 4.79939V6.4308H128.701V11.7044C128.701 13.9049 129.516 15.3656 131.867 15.3656Z" fill="#5C6F7A"/>
<path d="M135.878 15.119H138.058V4.68557H135.878V15.119ZM136.959 2.73167C137.755 2.73167 138.324 2.21948 138.324 1.42274C138.324 0.644977 137.755 0.13279 136.959 0.13279C136.162 0.13279 135.612 0.644977 135.612 1.42274C135.612 2.21948 136.162 2.73167 136.959 2.73167Z" fill="#5C6F7A"/>
<path d="M145.57 15.3656C146.764 15.3656 147.997 14.9293 148.964 14.0757L148.054 12.634C147.428 13.1651 146.65 13.5824 145.778 13.5824C144.053 13.5824 142.839 12.1218 142.839 9.90229C142.839 7.70178 144.091 6.22213 145.854 6.22213C146.556 6.22213 147.143 6.52565 147.712 7.03783L148.793 5.61509C148.035 4.95114 147.068 4.41999 145.74 4.41999C142.991 4.41999 140.582 6.4308 140.582 9.90229C140.582 13.3738 142.744 15.3656 145.57 15.3656Z" fill="#5C6F7A"/>
<path d="M160.687 15.3656C163.777 15.3656 165.863 13.6773 165.863 9.12452V1.13819H163.74V9.27628C163.74 12.4253 162.45 13.4497 160.687 13.4497C158.942 13.4497 157.691 12.4253 157.691 9.27628V1.13819H155.491V9.12452C155.491 13.6773 157.596 15.3656 160.687 15.3656Z" fill="#5C6F7A"/>
<path d="M169.474 15.119H171.673V1.13819H169.474V15.119Z" fill="#5C6F7A"/>
</g>
<defs>
<linearGradient id="paint0_linear_1798_52713" x1="51.5112" y1="-23.7935" x2="14.9112" y2="38.4065" gradientUnits="userSpaceOnUse">
<stop stop-color="white" stop-opacity="0.6"/>
<stop offset="1" stop-color="white" stop-opacity="0"/>
</linearGradient>
<clipPath id="clip0_1798_52713">
<rect width="171.673" height="19.4821" fill="white"/>
</clipPath>
</defs>
</svg>
